<?xml version="1.0" standalone="no"?>
<!DOCTYPE svg PUBLIC "-//W3C//DTD SVG 20010904//EN"
 "http://www.w3.org/TR/2001/REC-SVG-20010904/DTD/svg10.dtd">
<svg version="1.0" xmlns="http://www.w3.org/2000/svg"
 width="32.000000pt" height="31.000000pt" viewBox="0 0 32.000000 31.000000"
 preserveAspectRatio="xMidYMid meet">

<g transform="translate(0.000000,31.000000) scale(0.100000,-0.100000)"
fill="#000000" stroke="none">
<path d="M93 274 c-21 -21 -23 -32 -23 -118 0 -87 2 -97 26 -125 21 -26 33
-31 69 -31 36 0 48 5 69 31 14 17 26 36 27 42 0 7 3 34 6 61 10 102 -17 139
-110 157 -34 6 -43 3 -64 -17z m154 -67 c11 -10 12 -28 6 -78 -8 -56 -11 -64
-28 -61 -11 2 -48 5 -82 5 -54 2 -63 5 -63 21 0 16 2 17 18 5 16 -13 16 -12 3
4 -19 24 -24 83 -10 109 10 18 18 19 76 15 36 -3 72 -12 80 -20z m-91 -169
c12 -3 29 -1 39 4 13 8 16 7 13 -3 -6 -18 -65 -24 -84 -8 -18 15 -19 36 -1 22
6 -6 21 -12 33 -15z"/>
<path d="M101 176 c-9 -10 -6 -12 14 -8 29 5 31 8 11 15 -8 3 -19 0 -25 -7z"/>
<path d="M208 173 c6 -2 18 -2 25 0 6 3 1 5 -13 5 -14 0 -19 -2 -12 -5z"/>
<path d="M140 152 c0 -6 -9 -8 -20 -5 -16 4 -19 2 -14 -11 7 -20 15 -20 39 -3
12 10 14 16 7 21 -7 4 -12 3 -12 -2z"/>
<path d="M191 134 c13 -16 39 -19 39 -5 0 5 -11 11 -25 13 -20 4 -23 3 -14 -8z"/>
<path d="M190 100 c0 -5 5 -10 11 -10 5 0 7 5 4 10 -3 6 -8 10 -11 10 -2 0 -4
-4 -4 -10z"/>
</g>
</svg>
